<svg width="20" height="20" viewBox="0 0 20 20" fill="none" xmlns="http://www.w3.org/2000/svg">
<path d="M14.6875 19.375C14.5 19.375 14.375 19.3125 14.25 19.1875L10.6875 15.5C9.75 14.5625 9.75 13 10.6875 12C11.125 11.5 11.75 11.25 12.375 11.25C13 11.25 13.625 11.5 14.0625 12L14.625 12.625L15.1875 12C15.625 11.5 16.25 11.25 16.875 11.25C17.5 11.25 18.125 11.5 18.5625 12C19.5 12.9375 19.5 14.5 18.5625 15.5L15 19.1875C15 19.3125 14.875 19.375 14.6875 19.375Z" fill="url(#paint0_linear_2222_1079)"/>
<path d="M9.8125 16.3125C8.4375 14.875 8.4375 12.5625 9.8125 11.125C10.5 10.375 11.4375 10 12.4375 10C12.625 10 12.8125 10 13 10.0625L12.5 5.5625C12.4375 5.25 12.1875 5 11.875 5H10V4.375C10 2.625 8.625 1.25 6.875 1.25C5.125 1.25 3.75 2.625 3.75 4.375V5H1.875C1.5625 5 1.3125 5.25 1.25 5.5625L0 18.0625C0 18.25 0.0625 18.4375 0.1875 18.5625C0.3125 18.6875 0.4375 18.75 0.625 18.75H12.125L9.8125 16.3125ZM8.75 5H5V4.375C5 3.3125 5.8125 2.5 6.875 2.5C7.9375 2.5 8.75 3.3125 8.75 4.375V5Z" fill="url(#paint1_linear_2222_1079)"/>
<defs>
<linearGradient id="paint0_linear_2222_1079" x1="9.98438" y1="15.3446" x2="19.2759" y2="15.3446" gradientUnits="userSpaceOnUse">
<stop stop-color="#AA7C06"/>
<stop offset="0.95253" stop-color="#EAB308"/>
</linearGradient>
<linearGradient id="paint1_linear_2222_1079" x1="0" y1="10.0691" x2="13.0144" y2="10.0691" gradientUnits="userSpaceOnUse">
<stop stop-color="#AA7C06"/>
<stop offset="0.95253" stop-color="#EAB308"/>
</linearGradient>
</defs>
</svg>
