<svg width="24" height="24" viewBox="0 0 24 24" fill="none" xmlns="http://www.w3.org/2000/svg">
<path d="M9.4043 3.70734C10.568 2.80773 12.4959 2.7611 13.7061 3.6087L13.707 3.60968L19.4668 7.63898C19.8552 7.91088 20.2509 8.381 20.5508 8.95538C20.8506 9.52977 21.0097 10.1235 21.0098 10.5999V17.3802C21.0097 19.3777 19.3881 21.0001 17.3906 21.0003H6.61035C4.61559 21.0003 2.99046 19.3708 2.99023 17.3704V10.47L2.99707 10.3001C3.0282 9.89065 3.16754 9.39825 3.40723 8.91144C3.64656 8.42541 3.95349 8.01122 4.2627 7.73077L4.39551 7.61847L9.40527 3.70831L9.4043 3.70734ZM12 13.2503C11.0378 13.2504 10.25 14.0381 10.25 15.0003V18.0003C10.2502 18.9624 11.0379 19.7502 12 19.7503C12.9622 19.7503 13.7498 18.9625 13.75 18.0003V15.0003C13.75 14.0982 13.058 13.3493 12.1787 13.2591L12 13.2503Z" stroke="black" stroke-width="2"/>
</svg>
