<svg width="24" height="24" viewBox="0 0 24 24" fill="none" xmlns="http://www.w3.org/2000/svg">
<path d="M12 16C15.3639 16 17.0563 16.9287 17.9189 17.79C18.6177 18.4878 18.8639 19.2345 18.9512 19.6641C18.4383 20.0628 16.7309 21 12 21C7.26228 21 5.55717 20.0604 5.04785 19.6631C5.13567 19.2328 5.38301 18.4871 6.08105 17.79C6.94377 16.9286 8.63617 16 12 16ZM12 3C13.1904 3 14.0216 3.38324 14.5674 3.99707C15.1277 4.62739 15.5 5.62895 15.5 7.06348C15.4999 8.46866 15.0736 9.73928 14.4102 10.6348C13.7499 11.5257 12.8992 12 12 12C11.0997 11.9999 10.2487 11.5258 9.58887 10.6348C8.92565 9.73919 8.5 8.46769 8.5 7.06152C8.50008 5.62858 8.87245 4.62839 9.43262 3.99805C9.97849 3.38394 10.8097 3.00005 12 3Z" stroke="black" stroke-width="2"/>
</svg>
