<svg width="19" height="19" viewBox="0 0 19 19" fill="none" xmlns="http://www.w3.org/2000/svg">
<path d="M9.5 1C9.50479 0.999994 9.52057 0.99536 9.57715 1.0332C9.65155 1.08297 9.77136 1.19116 9.94434 1.41699C10.3025 1.88474 10.7132 2.61615 11.3311 3.72461L11.6426 4.2832C11.941 4.81843 12.2175 5.35688 12.6904 5.71582C13.1694 6.07943 13.7589 6.19149 14.3369 6.32227L14.9414 6.45898C16.1434 6.73097 16.9288 6.91124 17.459 7.12012C17.9703 7.32163 17.9851 7.45121 17.9902 7.46777C17.9991 7.49595 18.0521 7.63042 17.7451 8.11816C17.4301 8.61866 16.892 9.25177 16.0742 10.208V10.209L15.6621 10.6904C15.3134 11.0982 14.9634 11.4853 14.7627 11.957L14.6855 12.165C14.51 12.73 14.5862 13.3223 14.6465 13.9453L14.709 14.5879C14.8325 15.8627 14.9116 16.7101 14.8848 17.3125C14.8588 17.896 14.7409 17.9712 14.7334 17.9756C14.7217 17.9845 14.7094 17.9954 14.6504 17.999C14.5693 18.004 14.4185 17.9921 14.1562 17.917C13.6098 17.7604 12.8719 17.4236 11.7461 16.9053L11.1807 16.6445C10.6429 16.3969 10.1001 16.124 9.5 16.124C8.89986 16.124 8.35707 16.3969 7.81934 16.6445L7.25391 16.9053C6.12807 17.4236 5.39017 17.7604 4.84375 17.917C4.58151 17.9921 4.43068 18.004 4.34961 17.999C4.29058 17.9954 4.27829 17.9845 4.2666 17.9756C4.2591 17.9712 4.14125 17.8959 4.11523 17.3125C4.0884 16.7101 4.16748 15.8627 4.29102 14.5879L4.35352 13.9453C4.41387 13.3225 4.49007 12.7301 4.31445 12.165C4.18164 11.7379 3.92289 11.384 3.63379 11.0371L3.33789 10.6904L2.92578 10.209V10.208C2.10802 9.25177 1.56995 8.61866 1.25488 8.11816C0.947861 7.63041 1.00092 7.49594 1.00977 7.46777C1.01492 7.4512 1.02969 7.32162 1.54102 7.12012C2.07118 6.91124 2.85655 6.73096 4.05859 6.45898L4.66309 6.32227C5.24103 6.1915 5.83057 6.07942 6.30957 5.71582C6.78235 5.35691 7.05893 4.81868 7.35742 4.2832L7.66895 3.72461C8.28671 2.61638 8.69752 1.88573 9.05566 1.41797C9.22878 1.1919 9.34841 1.08299 9.42285 1.0332C9.47947 0.995331 9.49523 1 9.5 1Z" stroke="black" stroke-width="2"/>
</svg>
